<svg width="25" height="23" viewBox="0 0 25 23" fill="none" xmlns="http://www.w3.org/2000/svg">
<mask id="mask0_131098_12740" style="mask-type:alpha" maskUnits="userSpaceOnUse" x="0" y="0" width="25" height="23">
<rect x="0.697266" y="0.875" width="24" height="21.6586" fill="#C4C4C4"/>
</mask>
<g mask="url(#mask0_131098_12740)">
<path d="M24.0123 11.6547C23.6345 11.6547 23.409 11.4418 23.409 11.0874V9.51228H24.6715V8.19915H23.3639V6.755H22.9955L21.5667 8.20064H19.572L18.3329 10.1376V6.41406H16.5403V9.92319C16.234 8.78872 15.2266 8.03687 13.9082 8.03687C13.49 8.03389 13.078 8.13364 12.7111 8.3257V8.0592L10.8672 8.06367V14.9316H12.6396V12.9857C13.0236 13.2045 13.462 13.3177 13.9082 13.3147C15.2266 13.3147 16.234 12.5599 16.5403 11.4239V13.148H18.3313V11.0562L19.6342 13.148H21.7486L19.9622 10.5589L20.6805 9.51377H21.6149V11.3807C21.6149 12.481 22.3145 13.148 23.465 13.148H24.6979V11.6547H24.0123ZM13.7776 11.8051C13.106 11.8051 12.6131 11.3227 12.6131 10.6736C12.6131 10.0229 13.1075 9.54206 13.7776 9.54206C14.4492 9.54206 14.9421 10.0244 14.9421 10.6736C14.9421 11.3242 14.4446 11.8051 13.7776 11.8051Z" fill="#F3F3F3"/>
<path d="M2.95907 7.92969H0.989258V9.80261H2.95907V7.92969Z" fill="#53C0FF"/>
<path d="M1.94512 5.79688H0.698242V6.98197H1.94512V5.79688Z" fill="#53C0FF"/>
<path d="M5.29053 5.91406H3.94727V7.18997H5.29053V5.91406Z" fill="#53C0FF"/>
<path d="M3.29468 6.23438H2.62305V6.87308H3.29468V6.23438Z" fill="#53C0FF"/>
<path d="M9.26444 8.17188V12.2572C9.26444 12.412 9.23179 12.5654 9.1696 12.7083C9.10741 12.8512 9.01569 12.9807 8.90064 13.0909C8.78559 13.1996 8.64877 13.2874 8.49797 13.3455C8.34716 13.4051 8.18703 13.4348 8.02378 13.4348H3.72656V8.17188H9.26444Z" fill="#53C0FF"/>
<path d="M11.1602 17.361C11.1602 18.4643 12.0371 19.2351 13.1182 19.2351C13.9179 19.2351 14.6074 18.855 14.8997 18.137H14.144C13.94 18.5277 13.576 18.7124 13.1182 18.7124C12.357 18.7124 11.8055 18.1898 11.8055 17.361C11.8055 16.5322 12.357 16.0148 13.1182 16.0148C13.576 16.0148 13.94 16.1996 14.144 16.5903H14.8997C14.6074 15.8723 13.9179 15.4869 13.1182 15.4869C12.0371 15.4869 11.1602 16.2629 11.1602 17.361Z" fill="#F3F3F3"/>
<path d="M15.6356 19.2034H16.2644V17.5774C16.2644 17.0443 16.5678 16.7697 17.0311 16.7697C17.4889 16.7697 17.7922 17.0443 17.7922 17.5774V19.2034H18.4155V17.4877C18.4155 16.6747 17.886 16.2471 17.2076 16.2471C16.816 16.2471 16.474 16.3896 16.2644 16.6325V15.2969H15.6356V19.2034Z" fill="#F3F3F3"/>
<path d="M19.0079 17.7358C19.0079 18.6333 19.6422 19.2509 20.4309 19.2509C20.9383 19.2509 21.3024 19.0186 21.4954 18.7705V19.2034H22.1297V16.2946H21.4954V16.7169C21.3079 16.4794 20.9549 16.2471 20.4419 16.2471C19.6422 16.2471 19.0079 16.8384 19.0079 17.7358ZM21.4954 17.7464C21.4954 18.3746 21.0487 18.7283 20.5743 18.7283C20.1055 18.7283 19.6532 18.364 19.6532 17.7358C19.6532 17.1076 20.1055 16.7697 20.5743 16.7697C21.0487 16.7697 21.4954 17.1234 21.4954 17.7464Z" fill="#F3F3F3"/>
<path d="M23.0548 18.3957C23.0548 18.987 23.3913 19.2034 23.9318 19.2034H24.4282V18.7019H24.0421C23.7774 18.7019 23.6891 18.6121 23.6891 18.3957V16.7856H24.4282V16.2946H23.6891V15.5714H23.0548V16.2946H22.6963V16.7856H23.0548V18.3957Z" fill="#F3F3F3"/>
</g>
</svg>
