<svg width="24" height="18" viewBox="0 0 24 18" fill="none" xmlns="http://www.w3.org/2000/svg">
<path d="M23.5055 3.20924C23.2288 2.17738 22.4182 1.36401 21.3903 1.08615C19.5122 0.570312 11.9998 0.570312 11.9998 0.570312C11.9998 0.570312 4.48753 0.570312 2.60942 1.06649C1.60125 1.34417 0.770871 2.17756 0.494199 3.20924C0 5.09398 0 9.00276 0 9.00276C0 9.00276 0 12.9312 0.494199 14.7963C0.771054 15.828 1.58147 16.6415 2.60961 16.9194C4.5073 17.4352 11.9999 17.4352 11.9999 17.4352C11.9999 17.4352 19.5122 17.4352 21.3903 16.939C22.4184 16.6613 23.2288 15.8478 23.5057 14.8161C23.9999 12.9312 23.9999 9.0226 23.9999 9.0226C23.9999 9.0226 24.0197 5.09398 23.5055 3.20924Z" fill="#F3F3F3"/>
<path d="M9.6084 12.6128L15.8554 9.0017L9.6084 5.39062V12.6128Z" fill="#141638"/>
</svg>
