<svg width="24" height="25" viewBox="0 0 24 25" fill="none" xmlns="http://www.w3.org/2000/svg">
<path d="M0.633 0.967495V24.1075H2.28075V24.6646H0V0.411184H2.28075V0.968253L0.633 0.967495ZM7.67625 8.30187V9.47436H7.707C7.99522 9.04582 8.37738 8.69023 8.82375 8.43526C9.258 8.19045 9.762 8.06843 10.3238 8.06843C10.863 8.06843 11.3587 8.17529 11.805 8.38448C12.2542 8.59745 12.5903 8.97262 12.8243 9.50544C13.0785 9.12648 13.4265 8.79072 13.8593 8.50271C14.2935 8.21471 14.8095 8.06843 15.4065 8.06843C15.8316 8.06408 16.2552 8.12125 16.6642 8.2382C17.055 8.3481 17.3835 8.52621 17.6603 8.77102C17.934 9.02037 18.1485 9.34021 18.3053 9.73509C18.4575 10.1292 18.5355 10.6075 18.5355 11.1683V16.955H16.1887V12.0528C16.1894 11.7785 16.1774 11.5044 16.1528 11.2312C16.1385 10.9989 16.0775 10.772 15.9735 10.5643C15.8756 10.3733 15.7229 10.2167 15.5355 10.1148C15.3443 9.9996 15.0787 9.94503 14.7502 9.94503C14.418 9.94503 14.1525 10.0079 13.9493 10.1338C13.75 10.2591 13.585 10.4329 13.4692 10.6393C13.349 10.8566 13.2707 11.095 13.2382 11.3419C13.2004 11.605 13.1796 11.8703 13.176 12.1362V16.9558H10.8278V12.1043C10.8278 11.8474 10.824 11.595 10.809 11.3464C10.8022 11.1081 10.7531 10.873 10.6642 10.6522C10.586 10.4407 10.4403 10.2615 10.2502 10.1428C10.059 10.0163 9.77325 9.94958 9.39825 9.94958C9.285 9.94958 9.13725 9.97307 8.95725 10.0246C8.77725 10.0754 8.598 10.1701 8.43 10.3088C8.23997 10.4743 8.08902 10.6807 7.98825 10.9129C7.8675 11.1729 7.809 11.5162 7.809 11.9429V16.9603H5.46075V8.30414L7.67625 8.30187ZM23.367 24.1067V0.966738H21.7192V0.409668H24V24.663H21.7192V24.106L23.367 24.1067Z" fill="white"/>
</svg>
