<svg width="19" height="19" viewBox="0 0 19 19" fill="none" xmlns="http://www.w3.org/2000/svg">
<path fill-rule="evenodd" clip-rule="evenodd" d="M14.4195 12.9578C16.8633 9.81928 16.6425 5.27862 13.7573 2.39344C10.6332 -0.730756 5.56783 -0.730756 2.44364 2.39344C-0.680554 5.51763 -0.680554 10.583 2.44364 13.7071C5.32882 16.5923 9.86948 16.8131 13.008 14.3693C13.0215 14.3846 13.0356 14.3996 13.0502 14.4143L17.2929 18.6569C17.6834 19.0474 18.3166 19.0474 18.7071 18.6569C19.0976 18.2664 19.0976 17.6332 18.7071 17.2427L14.4645 13C14.4498 12.9854 14.4348 12.9713 14.4195 12.9578ZM12.3431 3.80765C14.6863 6.1508 14.6863 9.94979 12.3431 12.2929C9.99999 14.6361 6.201 14.6361 3.85785 12.2929C1.51471 9.94979 1.51471 6.1508 3.85785 3.80765C6.201 1.46451 9.99999 1.46451 12.3431 3.80765Z" fill="#141414"/>
</svg>
