<svg width="12" height="19" viewBox="0 0 12 19" fill="none" xmlns="http://www.w3.org/2000/svg">
<path fill-rule="evenodd" clip-rule="evenodd" d="M2 4.5C2 6.70914 3.79086 8.5 6 8.5C8.20914 8.5 10 6.70914 10 4.5C10 2.29086 8.20914 0.5 6 0.5C3.79086 0.5 2 2.29086 2 4.5ZM4 4.5C4 5.60457 4.89543 6.5 6 6.5C7.10457 6.5 8 5.60457 8 4.5C8 3.39543 7.10457 2.5 6 2.5C4.89543 2.5 4 3.39543 4 4.5Z" fill="white"/>
<path d="M2 12.5C2 11.9477 2.44772 11.5 3 11.5H9C9.55228 11.5 10 11.9477 10 12.5V18.5H12V12.5C12 10.8431 10.6569 9.5 9 9.5H3C1.34315 9.5 0 10.8431 0 12.5V18.5H2V12.5Z" fill="white"/>
</svg>
