<svg width="32" height="33" viewBox="0 0 32 33" fill="none" xmlns="http://www.w3.org/2000/svg">
<mask id="mask0_3190_5870" style="mask-type:alpha" maskUnits="userSpaceOnUse" x="5" y="5" width="22" height="23">
<rect x="5.0498" y="5.97964" width="21.4193" height="21.4193" fill="#C4C4C4"/>
</mask>
<g mask="url(#mask0_3190_5870)">
<path d="M22.7257 11.5603C20.4284 9.83746 18.2422 9.87412 18.2422 9.87412L18.0199 10.1307C20.6507 10.9371 21.9105 12.0734 21.9846 12.1467C20.3172 11.267 18.6869 10.7905 17.1677 10.6439C16.019 10.4973 14.9075 10.5339 13.9441 10.6805C13.8329 10.6805 13.7588 10.6805 13.6847 10.7172C13.1289 10.7538 11.7579 10.9738 10.0535 11.7069C9.46062 11.9268 9.12714 12.1101 9.09009 12.1467C9.16419 12.0734 10.4981 10.8638 13.2771 10.0574L13.1289 9.87412C13.1289 9.87412 10.9428 9.83746 8.64545 11.5236C8.64545 11.5236 6.34814 15.6657 6.34814 20.7608C6.34814 20.7608 7.68206 23.07 11.2392 23.18C11.2392 23.18 11.832 22.4836 12.3137 21.8604C10.3499 21.2739 9.57178 20.0643 9.53473 19.991C9.53473 19.991 9.71999 20.101 9.97936 20.2476C9.97936 20.2476 10.0164 20.2842 10.0535 20.2842C10.0905 20.3209 10.1646 20.3209 10.2017 20.3575C10.6093 20.5775 11.0169 20.7608 11.3874 20.9074C12.0543 21.164 12.8325 21.4206 13.7217 21.6038C14.9075 21.8238 16.3155 21.8971 17.8717 21.6405C18.6128 21.5305 19.3909 21.2739 20.2061 20.944C20.7619 20.7241 21.3918 20.4309 22.0587 20.0277C22.0217 20.101 21.2065 21.3472 19.1686 21.8971C19.6503 22.4836 20.2431 23.18 20.2431 23.18C23.7632 23.07 25.1342 20.7608 25.1712 20.7608C25.023 15.6657 22.7257 11.5603 22.7257 11.5603ZM12.6843 19.3312C11.795 19.3312 11.0539 18.5248 11.0539 17.5717C11.0539 16.6187 11.7579 15.8123 12.6843 15.8123C13.6106 15.8123 14.3146 16.6187 14.3146 17.5717C14.3146 18.5248 13.5735 19.3312 12.6843 19.3312ZM18.5016 19.3312C17.6123 19.3312 16.8713 18.5248 16.8713 17.5717C16.8713 16.6187 17.5753 15.8123 18.5016 15.8123C19.428 15.8123 20.132 16.6187 20.132 17.5717C20.132 18.5248 19.428 19.3312 18.5016 19.3312Z" fill="white"/>
</g>
<circle cx="15.5701" cy="16.5" r="15.0701" stroke="#3CADEF"/>
</svg>
