<svg width="32" height="33" viewBox="0 0 32 33" fill="none" xmlns="http://www.w3.org/2000/svg">
<mask id="mask0_3190_5886" style="mask-type:alpha" maskUnits="userSpaceOnUse" x="4" y="5" width="24" height="23">
<rect x="4.44287" y="5.97964" width="22.7175" height="21.4193" fill="#C4C4C4"/>
</mask>
<g mask="url(#mask0_3190_5886)">
<path d="M26.5105 16.643C26.1529 16.643 25.9395 16.4325 25.9395 16.0821V14.5243H27.1345V13.2257H25.8968V11.7975H25.548L24.1956 13.2271H22.3075L21.1346 15.1427V11.4603H19.4378V14.9307C19.1479 13.8087 18.1943 13.0652 16.9464 13.0652C16.5505 13.0622 16.1605 13.1609 15.8132 13.3508V13.0873L14.0679 13.0917V19.8837H15.7455V17.9593C16.109 18.1758 16.524 18.2877 16.9464 18.2847C18.1943 18.2847 19.1479 17.5382 19.4378 16.4148V18.1198H21.1332V16.0511L22.3664 18.1198H24.3678L22.6769 15.5594L23.3568 14.5258H24.2412V16.3721C24.2412 17.4602 24.9035 18.1198 25.9925 18.1198H27.1595V16.643H26.5105ZM16.8228 16.7917C16.187 16.7917 15.7205 16.3147 15.7205 15.6727C15.7205 15.0293 16.1885 14.5537 16.8228 14.5537C17.4585 14.5537 17.925 15.0308 17.925 15.6727C17.925 16.3162 17.4541 16.7917 16.8228 16.7917Z" fill="white"/>
<path d="M6.58233 12.9561H4.71777V14.8084H6.58233V12.9561Z" fill="white"/>
<path d="M5.62263 10.8477H4.44238V12.0197H5.62263V10.8477Z" fill="white"/>
<path d="M8.78955 10.9639H7.51807V12.2257H8.78955V10.9639Z" fill="white"/>
<path d="M6.8999 11.2792H6.26416V11.9109H6.8999V11.2792Z" fill="white"/>
<path d="M12.5505 13.1974V17.2376C12.5505 17.3908 12.5196 17.5424 12.4608 17.6838C12.4019 17.8251 12.3151 17.9532 12.2062 18.0622C12.0973 18.1696 11.9678 18.2565 11.825 18.3139C11.6823 18.3728 11.5307 18.4023 11.3762 18.4023H7.30859V13.1974H12.5505Z" fill="white"/>
<path d="M14.3457 22.2784C14.3457 23.3695 15.1758 24.1317 16.1991 24.1317C16.9561 24.1317 17.6087 23.7558 17.8854 23.0458H17.1701C16.977 23.4321 16.6324 23.6149 16.1991 23.6149C15.4786 23.6149 14.9565 23.098 14.9565 22.2784C14.9565 21.4587 15.4786 20.9471 16.1991 20.9471C16.6324 20.9471 16.977 21.1298 17.1701 21.5161H17.8854C17.6087 20.8061 16.9561 20.425 16.1991 20.425C15.1758 20.425 14.3457 21.1924 14.3457 22.2784Z" fill="white"/>
<path d="M18.582 24.1004H19.1772V22.4924C19.1772 21.9651 19.4643 21.6936 19.9029 21.6936C20.3362 21.6936 20.6234 21.9651 20.6234 22.4924V24.1004H21.2133V22.4037C21.2133 21.5997 20.7121 21.1768 20.07 21.1768C19.6993 21.1768 19.3756 21.3177 19.1772 21.5579V20.237H18.582V24.1004Z" fill="white"/>
<path d="M21.7741 22.649C21.7741 23.5366 22.3745 24.1474 23.1211 24.1474C23.6014 24.1474 23.9459 23.9177 24.1287 23.6723V24.1004H24.729V21.2238H24.1287V21.6414C23.9512 21.4065 23.617 21.1768 23.1315 21.1768C22.3745 21.1768 21.7741 21.7615 21.7741 22.649ZM24.1287 22.6595C24.1287 23.2807 23.7058 23.6305 23.2568 23.6305C22.813 23.6305 22.3849 23.2703 22.3849 22.649C22.3849 22.0278 22.813 21.6936 23.2568 21.6936C23.7058 21.6936 24.1287 22.0434 24.1287 22.6595Z" fill="white"/>
<path d="M25.6048 23.3016C25.6048 23.8864 25.9232 24.1004 26.4349 24.1004H26.9047V23.6044H26.5393C26.2887 23.6044 26.2051 23.5157 26.2051 23.3016V21.7093H26.9047V21.2238H26.2051V20.5085H25.6048V21.2238H25.2654V21.7093H25.6048V23.3016Z" fill="white"/>
</g>
<circle cx="15.9998" cy="16.5" r="15.0701" stroke="#3CADEF"/>
</svg>
