<svg width="32" height="33" viewBox="0 0 32 33" fill="none" xmlns="http://www.w3.org/2000/svg">
<mask id="mask0_3190_5899" style="mask-type:alpha" maskUnits="userSpaceOnUse" x="5" y="5" width="22" height="23">
<rect x="5.19434" y="5.97964" width="21.4193" height="21.4193" fill="#C4C4C4"/>
</mask>
<g mask="url(#mask0_3190_5899)">
<path d="M24.2966 13.442C24.2578 12.5626 24.1156 11.958 23.9119 11.4341C23.7017 10.878 23.3784 10.3801 22.9547 9.96622C22.5409 9.54589 22.0397 9.21928 21.49 9.01239C20.9631 8.80867 20.3617 8.66646 19.4822 8.62768C18.5962 8.58562 18.3149 8.5759 16.0678 8.5759C13.8206 8.5759 13.5394 8.58562 12.6567 8.6244C11.7772 8.66317 11.1726 8.80551 10.6488 9.00911C10.0926 9.21928 9.59474 9.54261 9.18085 9.96622C8.76052 10.3801 8.43403 10.8813 8.22702 11.4309C8.0233 11.958 7.88109 12.5593 7.84231 13.4387C7.80025 14.3247 7.79053 14.606 7.79053 16.8532C7.79053 19.1003 7.80025 19.3816 7.83903 20.2643C7.8778 21.1437 8.02014 21.7484 8.22387 22.2723C8.43403 22.8284 8.76052 23.3262 9.18085 23.7401C9.59474 24.1605 10.0959 24.4871 10.6456 24.6939C11.1726 24.8977 11.7739 25.0399 12.6535 25.0787C13.5361 25.1176 13.8175 25.1272 16.0646 25.1272C18.3118 25.1272 18.5931 25.1176 19.4758 25.0787C20.3552 25.0399 20.9598 24.8977 21.4836 24.6939C22.5959 24.2639 23.4754 23.3845 23.9054 22.2723C24.109 21.7452 24.2514 21.1437 24.2901 20.2643C24.3289 19.3816 24.3386 19.1003 24.3386 16.8532C24.3386 14.606 24.3353 14.3247 24.2966 13.442ZM22.8061 20.1996C22.7705 21.008 22.6347 21.4445 22.5215 21.7355C22.2434 22.4565 21.6711 23.0288 20.9501 23.3069C20.6591 23.4201 20.2194 23.5558 19.4143 23.5913C18.5413 23.6302 18.2795 23.6398 16.0711 23.6398C13.8627 23.6398 13.5976 23.6302 12.7278 23.5913C11.9194 23.5558 11.4829 23.4201 11.1919 23.3069C10.8331 23.1743 10.5065 22.9641 10.2414 22.6893C9.96657 22.4209 9.7564 22.0976 9.62379 21.7388C9.51062 21.4478 9.37485 21.008 9.33936 20.2029C9.30046 19.3299 9.29086 19.068 9.29086 16.8596C9.29086 14.6512 9.30046 14.3861 9.33936 13.5164C9.37485 12.7081 9.51062 12.2716 9.62379 11.9806C9.7564 11.6217 9.96657 11.2952 10.2447 11.0299C10.5129 10.7551 10.8363 10.5449 11.1952 10.4124C11.4862 10.2993 11.926 10.1635 12.731 10.1279C13.604 10.0891 13.866 10.0794 16.0742 10.0794C18.2859 10.0794 18.5477 10.0891 19.4176 10.1279C20.2259 10.1635 20.6624 10.2993 20.9534 10.4124C21.3122 10.5449 21.6388 10.7551 21.9039 11.0299C22.1787 11.2983 22.3889 11.6217 22.5215 11.9806C22.6347 12.2716 22.7705 12.7113 22.8061 13.5164C22.8449 14.3894 22.8546 14.6512 22.8546 16.8596C22.8546 19.068 22.8449 19.3267 22.8061 20.1996Z" fill="white"/>
<path d="M16.0677 12.6014C13.7204 12.6014 11.8159 14.5057 11.8159 16.8532C11.8159 19.2006 13.7204 21.105 16.0677 21.105C18.4152 21.105 20.3195 19.2006 20.3195 16.8532C20.3195 14.5057 18.4152 12.6014 16.0677 12.6014ZM16.0677 19.6112C14.5449 19.6112 13.3097 18.3761 13.3097 16.8532C13.3097 15.3302 14.5449 14.0951 16.0677 14.0951C17.5907 14.0951 18.8258 15.3302 18.8258 16.8532C18.8258 18.3761 17.5907 19.6112 16.0677 19.6112Z" fill="white"/>
<path d="M21.48 12.4332C21.48 12.9814 21.0355 13.4258 20.4872 13.4258C19.9391 13.4258 19.4946 12.9814 19.4946 12.4332C19.4946 11.8849 19.9391 11.4406 20.4872 11.4406C21.0355 11.4406 21.48 11.8849 21.48 12.4332Z" fill="white"/>
</g>
<circle cx="15.7147" cy="16.5" r="15.0701" stroke="#3CADEF"/>
</svg>
