<svg width="32" height="33" viewBox="0 0 32 33" fill="none" xmlns="http://www.w3.org/2000/svg">
<mask id="mask0_3190_5875" style="mask-type:alpha" maskUnits="userSpaceOnUse" x="5" y="5" width="23" height="23">
<rect x="5.76465" y="5.97968" width="21.4193" height="21.4193" fill="#C4C4C4"/>
</mask>
<g mask="url(#mask0_3190_5875)">
<path d="M24.9123 11.2819C24.4518 12.0379 23.8711 12.6745 23.1702 13.1918V13.6494C23.1702 18.5633 19.626 24.1537 13.1183 24.1537C11.136 24.1537 9.27377 23.517 7.71191 22.4825C7.9522 22.5422 8.23253 22.5422 8.53289 22.5422C10.1548 22.6019 11.6766 21.9653 12.8981 20.9904C11.3162 20.9904 10.0347 19.8962 9.57412 18.3843C9.75433 18.4439 9.9746 18.4439 10.2149 18.4439C10.5553 18.4439 10.8556 18.3843 11.136 18.3246C9.51405 17.9864 8.2926 16.4346 8.2926 14.6441V14.5844C8.81322 14.8828 9.33384 15.042 9.91452 15.042C8.99343 14.3457 8.35267 13.2515 8.35267 11.9186C8.35267 11.2819 8.53289 10.5856 8.81322 10.0684C10.5553 12.3164 13.1784 13.8881 16.0818 14.0473C16.0218 13.7488 15.9617 13.4703 15.9617 13.1719C15.9617 11.1626 17.5436 9.49143 19.5059 9.55111C20.4871 9.55111 21.4282 10.0087 22.0689 10.7647C22.8899 10.5856 23.6308 10.3071 24.4518 9.84953C24.1514 10.7249 23.6308 11.4013 22.8899 11.8788C23.5907 11.7395 24.2715 11.5803 24.9123 11.2819Z" fill="white"/>
</g>
<circle cx="16.285" cy="16.5" r="15.0701" stroke="#3CADEF"/>
</svg>
