<svg width="32" height="33" viewBox="0 0 32 33" fill="none" xmlns="http://www.w3.org/2000/svg">
<mask id="mask0_3190_5880" style="mask-type:alpha" maskUnits="userSpaceOnUse" x="5" y="5" width="23" height="23">
<rect x="5.90967" y="5.97964" width="21.4193" height="21.4193" fill="#C4C4C4"/>
</mask>
<g mask="url(#mask0_3190_5880)">
<path d="M25.0208 12.4824C24.8188 11.7316 24.2268 11.1399 23.4762 10.9377C22.1048 10.5624 16.6192 10.5624 16.6192 10.5624C16.6192 10.5624 11.1338 10.5624 9.76235 10.9234C9.02617 11.1254 8.41983 11.7318 8.2178 12.4824C7.85693 13.8537 7.85693 16.6975 7.85693 16.6975C7.85693 16.6975 7.85693 19.5557 8.2178 20.9127C8.41996 21.6633 9.01173 22.2552 9.76248 22.4574C11.1482 22.8327 16.6194 22.8327 16.6194 22.8327C16.6194 22.8327 22.1048 22.8327 23.4762 22.4717C24.227 22.2697 24.8188 21.6778 25.0209 20.9271C25.3818 19.5557 25.3818 16.712 25.3818 16.712C25.3818 16.712 25.3962 13.8537 25.0208 12.4824Z" fill="white"/>
<path d="M14.8726 19.3249L19.4342 16.6976L14.8726 14.0703V19.3249Z" fill="#222450"/>
</g>
<circle cx="16.43" cy="16.5" r="15.0701" stroke="#3CADEF"/>
</svg>
