<svg width="78" height="31" viewBox="0 0 78 31" fill="none" xmlns="http://www.w3.org/2000/svg">
<path d="M75.795 19.633C74.5814 19.633 73.8598 18.9199 73.8598 17.7314V12.4555H77.9095V8.05799H73.7153V3.21592H72.5337L67.9496 8.05799H61.5489L57.5713 14.5497V2.07672H51.8232V13.836C50.8406 10.0327 47.6097 7.51776 43.3807 7.51776C42.0377 7.50856 40.7149 7.84191 39.539 8.48585V7.59149L33.6245 7.60696V30.6168H39.3127V24.0924C40.5424 24.8232 41.9511 25.204 43.3843 25.1929C47.6151 25.1929 50.846 22.6632 51.8268 18.8587V24.6325H57.5749V17.6256L61.7566 24.6338H68.5364L62.8062 15.9575L65.1103 12.4555H68.1095V18.7083C68.1095 22.3928 70.3539 24.6314 74.0465 24.6314H78.0001V19.6319L75.795 19.633ZM42.9615 20.1388C40.806 20.1388 39.2241 18.5235 39.2241 16.3462C39.2241 14.1688 40.8078 12.5536 42.9615 12.5536C45.1153 12.5536 46.699 14.1688 46.699 16.3462C46.699 18.5235 45.1027 20.1388 42.9615 20.1388Z" fill="#191944"/>
<path d="M8.24812 6.80829H1.92639V13.0825H8.24812V6.80829Z" fill="#3CADEF"/>
<path d="M4.99461 0H0.996094V3.96848H4.99461V0Z" fill="#3CADEF"/>
<path d="M15.7284 0.39386H11.4198V4.67017H15.7284V0.39386Z" fill="#3CADEF"/>
<path d="M9.32446 1.46295H7.1701V3.60111H9.32446V1.46295Z" fill="#3CADEF"/>
<path d="M28.4814 7.62653V21.3148C28.4814 21.833 28.3786 22.3461 28.1788 22.8248C27.979 23.3036 27.6861 23.7385 27.3169 24.105C26.9477 24.4714 26.5094 24.762 26.027 24.9603C25.5447 25.1586 25.0277 25.2607 24.5056 25.2607H10.7144V7.62653H28.4814Z" fill="#3CADEF"/>
</svg>
