<svg width="126" height="51" viewBox="0 0 126 51" fill="none" xmlns="http://www.w3.org/2000/svg">
<path d="M122.401 32.314C120.417 32.314 119.234 31.1462 119.234 29.2026V20.5627H125.861V13.36H118.997V5.43869H117.063L109.561 13.3682H99.0894L92.5841 23.9925V3.5686H83.1731V22.8166C81.5651 16.5939 76.276 12.4699 69.3544 12.4699C67.1588 12.4535 64.9958 13.0007 63.0695 14.0541V12.5924L53.3892 12.6169V50.2881H62.6941V39.6147C64.7101 40.8151 67.0119 41.4358 69.3544 41.4194C76.276 41.4194 81.5651 37.2791 83.1731 31.0482V40.5048H92.5759V29.0312L99.4159 40.5048H110.516L101.138 26.3036L104.909 20.5709H109.815V30.8114C109.815 36.8463 113.488 40.5048 119.528 40.5048H126V32.314H122.401ZM68.6688 33.1388C65.1427 33.1388 62.5553 30.4929 62.5553 26.9324C62.5553 23.3637 65.1509 20.726 68.6688 20.726C72.1949 20.726 74.7823 23.3719 74.7823 26.9324C74.7823 30.5011 72.1704 33.1388 68.6688 33.1388Z" fill="white"/>
<path d="M11.8679 11.3188H1.52637V21.592H11.8679V11.3188Z" fill="#4DABE0"/>
<path d="M6.54609 0.171448H0V6.67183H6.54609V0.171448Z" fill="#4DABE0"/>
<path d="M24.1112 0.816986H17.0591V7.81551H24.1112V0.816986Z" fill="#4DABE0"/>
<path d="M13.6311 2.56461H10.105V6.06795H13.6311V2.56461Z" fill="#4DABE0"/>
<path d="M44.9737 12.658V35.0664C44.9737 35.9157 44.8023 36.7568 44.4758 37.5408C44.1493 38.3247 43.6677 39.0352 43.0637 39.6395C42.4597 40.2356 41.7415 40.7175 40.9497 41.0359C40.158 41.3626 39.3173 41.5259 38.4603 41.5259H15.8999V12.658H44.9737Z" fill="#4DABE0"/>
</svg>
