<svg width="25" height="18" viewBox="0 0 25 18" fill="none" xmlns="http://www.w3.org/2000/svg">
<path d="M21.6595 2.90101C18.6938 0.77516 15.8715 0.820391 15.8715 0.820391L15.5845 1.13701C18.9808 2.13209 20.6071 3.53425 20.7028 3.62471C18.5503 2.53917 16.4455 1.95116 14.4843 1.77024C13.0014 1.58932 11.5664 1.63455 10.3227 1.81547C10.1792 1.81547 10.0835 1.81547 9.98786 1.8607C9.27034 1.90593 7.50046 2.17732 5.30006 3.08194C4.53471 3.35332 4.1042 3.57948 4.05636 3.62471C4.15203 3.53425 5.87408 2.04163 9.46168 1.04655L9.27034 0.820391C9.27034 0.820391 6.4481 0.77516 3.48235 2.85578C3.48235 2.85578 0.516602 7.96688 0.516602 14.254C0.516602 14.254 2.23865 17.1035 6.83077 17.2392C6.83077 17.2392 7.59613 16.3798 8.21798 15.6109C5.68274 14.8872 4.67821 13.3946 4.63038 13.3041C4.63038 13.3041 4.86955 13.4398 5.20439 13.6208C5.20439 13.6208 5.25223 13.666 5.30006 13.666C5.3479 13.7112 5.44357 13.7112 5.4914 13.7564C6.01758 14.0278 6.54376 14.254 7.02211 14.4349C7.88313 14.7515 8.88766 15.0681 10.0357 15.2943C11.5664 15.5657 13.3841 15.6561 15.3932 15.3395C16.3499 15.2038 17.3544 14.8872 18.4068 14.4801C19.1243 14.2088 19.9375 13.8469 20.7985 13.3494C20.7507 13.4398 19.6983 14.9777 17.0674 15.6561C17.6892 16.3798 18.4546 17.2392 18.4546 17.2392C22.9989 17.1035 24.7688 14.254 24.8166 14.254C24.6253 7.96688 21.6595 2.90101 21.6595 2.90101ZM8.69632 12.49C7.54829 12.49 6.5916 11.4949 6.5916 10.3189C6.5916 9.14289 7.50046 8.14781 8.69632 8.14781C9.89219 8.14781 10.801 9.14289 10.801 10.3189C10.801 11.4949 9.84435 12.49 8.69632 12.49ZM16.2064 12.49C15.0583 12.49 14.1016 11.4949 14.1016 10.3189C14.1016 9.14289 15.0105 8.14781 16.2064 8.14781C17.4022 8.14781 18.3111 9.14289 18.3111 10.3189C18.3111 11.4949 17.4022 12.49 16.2064 12.49Z" fill="#F3F3F3"/>
</svg>
