<svg width="22" height="21" viewBox="0 0 22 21" fill="none" xmlns="http://www.w3.org/2000/svg">
<path d="M21.9044 8.07422C21.9044 10.5653 21.1668 12.8841 19.898 14.8242C21.2045 12.8195 21.9037 10.475 21.9044 8.07422Z" fill="white"/>
<path d="M13.4413 19.7993C12.8616 19.8924 12.6427 19.5188 12.6427 19.2036C12.6427 19.0643 12.6445 18.8231 12.6468 18.502C12.6513 17.8629 12.6582 16.9071 12.6582 15.8077C12.6582 14.65 12.2723 13.9091 11.8246 13.5231C14.5722 13.2144 17.4588 12.1648 17.4588 7.4259C17.4588 6.06753 16.9803 4.97157 16.193 4.10715C16.3165 3.79843 16.7487 2.53267 16.0695 0.834703C16.0695 0.834703 15.0353 0.495109 12.6736 2.10046C11.6857 1.82261 10.636 1.68369 9.58639 1.68369C8.53673 1.68369 7.48708 1.82261 6.49917 2.10046C4.13745 0.510545 3.10324 0.834703 3.10324 0.834703C2.42405 2.53267 2.85626 3.79843 2.97975 4.10715C2.19251 4.97157 1.71399 6.08297 1.71399 7.4259C1.71399 12.1493 4.5851 13.2144 7.33272 13.5231C6.97769 13.8319 6.65353 14.3721 6.54548 15.1748C5.83542 15.499 4.06027 16.0238 2.94887 14.156C2.71733 13.7856 2.02271 12.8748 1.05024 12.8903C0.0160205 12.9057 0.633464 13.4768 1.06567 13.7084C1.5905 14.0017 2.19251 15.0976 2.33143 15.4527C2.57841 16.1473 3.38109 17.4748 6.48374 16.9036C6.48374 17.5785 6.49031 18.227 6.49488 18.6778C6.49731 18.9178 6.49917 19.1017 6.49917 19.2036C6.49917 19.5278 6.26763 19.8982 5.65019 19.7902C4.08519 19.2685 2.65984 18.444 1.44416 17.3858C3.61388 19.2774 6.4509 20.4231 9.55552 20.4231C10.9131 20.4231 12.2195 20.204 13.4413 19.7993Z" fill="white"/>
</svg>
