<svg width="18" height="19" viewBox="0 0 18 19" fill="none" xmlns="http://www.w3.org/2000/svg">
<path d="M8.99801 6.74248C7.37297 6.74248 6.04681 8.06866 6.04681 9.69373C6.04681 11.3188 7.37297 12.645 8.99801 12.645C10.6231 12.645 11.9492 11.3188 11.9492 9.69373C11.9492 8.06866 10.6231 6.74248 8.99801 6.74248ZM17.8494 9.69373C17.8494 8.47161 17.8605 7.26056 17.7918 6.04065C17.7232 4.62369 17.4 3.36614 16.3638 2.33C15.3255 1.29163 14.0702 0.970606 12.6532 0.901972C11.4311 0.833339 10.2201 0.844409 9.00022 0.844409C7.77812 0.844409 6.56709 0.833339 5.3472 0.901972C3.93027 0.970606 2.67274 1.29385 1.63661 2.33C0.598268 3.36836 0.277244 4.62369 0.208612 6.04065C0.139979 7.26277 0.151049 8.47382 0.151049 9.69373C0.151049 10.9136 0.139979 12.1269 0.208612 13.3468C0.277244 14.7638 0.600482 16.0213 1.63661 17.0575C2.67496 18.0958 3.93027 18.4169 5.3472 18.4855C6.5693 18.5541 7.78033 18.5431 9.00022 18.5431C10.2223 18.5431 11.4334 18.5541 12.6532 18.4855C14.0702 18.4169 15.3277 18.0936 16.3638 17.0575C17.4022 16.0191 17.7232 14.7638 17.7918 13.3468C17.8627 12.1269 17.8494 10.9159 17.8494 9.69373V9.69373ZM8.99801 14.2346C6.48517 14.2346 4.45719 12.2066 4.45719 9.69373C4.45719 7.18085 6.48517 5.15284 8.99801 5.15284C11.5108 5.15284 13.5388 7.18085 13.5388 9.69373C13.5388 12.2066 11.5108 14.2346 8.99801 14.2346ZM13.7248 6.02736C13.1381 6.02736 12.6643 5.55357 12.6643 4.96686C12.6643 4.38015 13.1381 3.90636 13.7248 3.90636C14.3115 3.90636 14.7853 4.38015 14.7853 4.96686C14.7855 5.10618 14.7581 5.24416 14.7049 5.3729C14.6517 5.50165 14.5736 5.61863 14.4751 5.71714C14.3766 5.81565 14.2596 5.89376 14.1308 5.94699C14.0021 6.00023 13.8641 6.02754 13.7248 6.02736V6.02736Z" fill="#F3F3F3"/>
</svg>
