<svg width="138" height="56" viewBox="0 0 138 56" fill="none" xmlns="http://www.w3.org/2000/svg">
<path d="M134.058 35.9881C131.885 35.9881 130.589 34.7091 130.589 32.5804V23.1176H137.848V15.2289H130.33V6.55319H128.211L119.996 15.2379H108.526L101.401 26.8741V4.505H91.0941V25.5861C89.333 18.7708 83.5402 14.254 75.9594 14.254C73.5547 14.2361 71.1857 14.8354 69.076 15.9892V14.3882L58.4736 14.415V55.6739H68.6647V43.984C70.8728 45.2988 73.3938 45.9786 75.9594 45.9607C83.5402 45.9607 89.333 41.4261 91.0941 34.6017V44.959H101.392V32.3926L108.884 44.959H121.042L110.77 29.4052L114.9 23.1265H120.273V34.3424C120.273 40.952 124.296 44.959 130.911 44.959H138V35.9881H134.058ZM75.2085 36.8914C71.3466 36.8914 68.5128 33.9935 68.5128 30.0939C68.5128 26.1854 71.3555 23.2965 75.2085 23.2965C79.0704 23.2965 81.9042 26.1943 81.9042 30.0939C81.9042 34.0025 79.0436 36.8914 75.2085 36.8914Z" fill="white"/>
<path d="M12.9983 12.9929H1.67188V24.2445H12.9983V12.9929Z" fill="#4DABE0"/>
<path d="M7.16953 0.784241H0V7.90371H7.16953V0.784241Z" fill="#4DABE0"/>
<path d="M26.4074 1.49084H18.6836V9.1559H26.4074V1.49084Z" fill="#4DABE0"/>
<path d="M14.9293 3.40485H11.0674V7.24184H14.9293V3.40485Z" fill="#4DABE0"/>
<path d="M49.2568 14.4597V39.0021C49.2568 39.9323 49.0691 40.8536 48.7115 41.7122C48.3539 42.5708 47.8265 43.3489 47.1649 44.0108C46.5034 44.6637 45.7167 45.1914 44.8496 45.5402C43.9824 45.898 43.0617 46.0769 42.123 46.0769H17.4141V14.4597H49.2568Z" fill="#4DABE0"/>
</svg>
